<svg preserveAspectRatio="none" width="100%" height="100%" overflow="visible" style="display: block;" viewBox="0 0 197.5 38.3333" fill="none" xmlns="http://www.w3.org/2000/svg">
<g id="Layer_1" clip-path="url(#clip0_0_4)">
<path id="Vector" d="M120.191 8.94389H120.234C120.234 8.94389 92.8178 38.2306 92.7251 38.327H79.5322L106.504 9.33069L84.0864 9.32568C83.0268 9.32568 82.3341 8.70229 82.1838 7.99503L82.1788 1.65851C82.3579 0.787272 83.2097 0.299077 84.4634 0.299077L118.617 0.289062C119.827 0.289062 120.809 0.841098 120.809 1.69607L120.824 8.01757C120.742 8.38058 120.524 8.70479 120.191 8.94138V8.94389Z" fill="url(#paint0_linear_0_4)"/>
<path id="Vector_2" d="M95.2881 38.3337C95.2881 38.3337 103.105 29.247 103.738 29.247L119.711 29.2383C120.32 29.2383 120.817 29.7891 120.818 30.6453L120.826 36.9655C120.742 37.6991 120.386 38.2787 119.806 38.2787L97.0529 38.2761C96.5168 38.2761 95.9507 38.3337 95.2881 38.3337Z" fill="white"/>
<path id="Vector_3" d="M38.897 36.0726C38.897 37.2681 38.3446 38.242 37.4879 38.242L31.1639 38.257C30.4324 38.0955 29.85 37.397 29.85 36.2566L29.8538 16.0791C27.36 18.9695 20.292 26.2524 20.292 26.2524V26.2261L19.1659 27.2075L18.2604 26.1748V26.1898C18.2604 26.1898 11.4541 18.8619 9.03673 15.9465L9.04425 36.0726C9.04425 37.2681 8.49188 38.242 7.63515 38.242L1.31114 38.257C0.575901 38.0955 -0.00276693 37.397 -0.00276693 36.2566L0.00349572 1.89019C0.00349572 0.838694 0.628508 0.150214 1.33493 0.00375535L7.67774 0C7.88691 0.0438124 8.07103 0.125178 8.23637 0.23909L18.2616 11.1809L19.1672 12.2099L20.2932 11.2322V11.1584L30.7042 0.199033C30.8545 0.103898 31.0174 0.0413088 31.1865 0.00375535L37.5293 0C38.401 0.180257 38.887 1.01895 38.8908 2.26072L38.8983 36.0714L38.897 36.0726Z" fill="white"/>
<path id="Vector_4" d="M157.968 0.316406L151.644 0.327672C150.693 0.327672 150.25 0.98611 150.25 0.98611L124.215 29.1374V36.5417C124.215 37.0162 124.41 37.4493 124.718 37.7585C125.031 38.0714 125.461 38.2617 125.94 38.2617C127.58 38.2617 129.147 37.5857 130.266 36.3865C136.421 29.7871 149.867 14.9785 150.242 14.5742L150.246 36.7333C150.246 37.6045 150.736 38.1928 151.608 38.318L157.95 38.3143C158.653 38.2154 159.282 37.7334 159.282 36.9911V1.72091C159.282 0.923521 158.704 0.430318 157.968 0.316406ZM158.074 38.2742H157.412C158.431 38.2304 159.075 37.7159 159.262 37.0537C159.184 37.6708 158.795 38.1015 158.073 38.2742H158.074Z" fill="white"/>
<path id="Vector_5" d="M76.2463 0.316569L69.9223 0.327835C68.9716 0.327835 68.5282 0.986273 68.5282 0.986273L42.4932 29.1376V36.5419C42.4932 37.0163 42.6886 37.4494 42.9967 37.7586C43.3098 38.0716 43.7394 38.2618 44.2179 38.2618C45.8587 38.2618 47.4256 37.5859 48.5441 36.3867C54.6991 29.7873 68.145 14.9787 68.5207 14.5744L68.5245 36.7334C68.5245 37.6047 69.0142 38.193 69.886 38.3182L76.2288 38.3144C76.9314 38.2155 77.5602 37.7336 77.5602 36.9913V1.72107C77.5602 0.923683 76.9828 0.430481 76.2463 0.316569ZM76.3528 38.2744H75.6902C76.7097 38.2306 77.3535 37.7161 77.5402 37.0539C77.4625 37.671 77.073 38.1016 76.3515 38.2744H76.3528Z" fill="white"/>
<path id="Vector_6" d="M197.5 35.1521L197.496 36.8107C197.496 36.8958 197.492 36.976 197.481 37.0536C197.289 37.7158 196.646 38.2302 195.627 38.2741L165.256 38.2665C164.973 38.244 164.719 38.1777 164.498 38.075C163.98 37.8359 163.645 37.4053 163.549 36.9422L163.545 30.6031C163.549 30.5919 163.549 30.5806 163.552 30.5731L163.545 2.16263C163.545 1.15119 164.097 0.327521 164.954 0.323766L171.278 0.3125C172.01 0.4527 172.592 1.04104 172.592 2.00366L172.588 29.2412L195.297 29.2337C196.503 29.2337 197.49 29.7857 197.49 30.6419L197.497 32.7224L197.501 35.1496L197.5 35.1521Z" fill="white"/>
</g>
<defs>
<linearGradient id="paint0_linear_0_4" x1="79.5322" y1="19.3086" x2="120.824" y2="19.3086" gradientUnits="userSpaceOnUse">
<stop stop-color="#05DC7F"/>
<stop offset="0.26" stop-color="#09A865"/>
<stop offset="0.61" stop-color="#0F6646"/>
<stop offset="0.87" stop-color="#133D32"/>
<stop offset="1" stop-color="#152E2B"/>
</linearGradient>
<clipPath id="clip0_0_4">
<rect width="197.5" height="38.3333" fill="white"/>
</clipPath>
</defs>
</svg>
