<svg preserveAspectRatio="none" width="100%" height="100%" overflow="visible" style="display: block;" viewBox="0 0 13.7716 13.7716" fill="none" xmlns="http://www.w3.org/2000/svg">
<g id="SVG" clip-path="url(#clip0_0_45)">
<path id="Vector" d="M1.18441 7.15511C1.1358 7.02415 1.1358 6.88008 1.18441 6.74911C2.15276 4.40114 4.44176 2.86914 6.98158 2.86914C9.52139 2.86914 11.8104 4.40114 12.7787 6.74911C12.8274 6.88008 12.8274 7.02415 12.7787 7.15511C11.8104 9.50308 9.52139 11.0351 6.98158 11.0351C4.44176 11.0351 2.15276 9.50308 1.18441 7.15511" stroke="#545E6F" stroke-width="1.14763" stroke-linecap="round" stroke-linejoin="round"/>
<path id="Vector_2" d="M5.16452 6.91412C5.16452 7.87998 5.94867 8.66412 6.91452 8.66412C7.88037 8.66412 8.66452 7.87998 8.66452 6.91412C8.66452 5.94827 7.88037 5.16412 6.91452 5.16412C5.94867 5.16412 5.16452 5.94827 5.16452 6.91412V6.91412" stroke="#545E6F" stroke-width="1.14763" stroke-linecap="round" stroke-linejoin="round"/>
</g>
<defs>
<clipPath id="clip0_0_45">
<rect width="13.7716" height="13.7716" fill="white"/>
</clipPath>
</defs>
</svg>
