<svg preserveAspectRatio="none" width="100%" height="100%" overflow="visible" style="display: block;" viewBox="0 0 24 24" fill="none" xmlns="http://www.w3.org/2000/svg">
<g id="SVG">
<path id="Vector" d="M19 7V4C19 3.44808 18.5519 3 18 3H5C3.89617 3 3 3.89617 3 5C3 6.10383 3.89617 7 5 7H20C20.5519 7 21 7.44808 21 8V12H18C16.8962 12 16 12.8962 16 14C16 15.1038 16.8962 16 18 16H21C21.5519 16 22 15.5519 22 15V13C22 12.4481 21.5519 12 21 12" stroke="#152E2B" stroke-width="2" stroke-linecap="round" stroke-linejoin="round"/>
<path id="Vector_2" d="M3 5V19C3 20.1038 3.89617 21 5 21H20C20.5519 21 21 20.5519 21 20V16" stroke="#152E2B" stroke-width="2" stroke-linecap="round" stroke-linejoin="round"/>
</g>
</svg>
