<svg preserveAspectRatio="none" width="100%" height="100%" overflow="visible" style="display: block;" viewBox="0 0 9.87198 9.87198" fill="none" xmlns="http://www.w3.org/2000/svg">
<g id="Group">
<path id="Vector" d="M8.61985 0.331162V2.17309M9.54081 1.25213H7.69888M4.48333 0.705995C4.50306 0.600362 4.55912 0.504956 4.64178 0.436299C4.72445 0.367643 4.82853 0.33006 4.93599 0.33006C5.04345 0.33006 5.14752 0.367643 5.23019 0.436299C5.31286 0.504956 5.36891 0.600362 5.38864 0.705995L5.87261 3.26536C5.90698 3.44732 5.99541 3.61469 6.12635 3.74563C6.25729 3.87657 6.42466 3.96499 6.60662 3.99937L9.16598 4.48333C9.27161 4.50306 9.36702 4.55912 9.43568 4.64178C9.50433 4.72445 9.54192 4.82853 9.54192 4.93599C9.54192 5.04345 9.50433 5.14752 9.43568 5.23019C9.36702 5.31286 9.27161 5.36891 9.16598 5.38864L6.60662 5.87261C6.42466 5.90698 6.25729 5.99541 6.12635 6.12635C5.99541 6.25729 5.90698 6.42466 5.87261 6.60662L5.38864 9.16598C5.36891 9.27161 5.31286 9.36702 5.23019 9.43568C5.14752 9.50433 5.04345 9.54192 4.93599 9.54192C4.82853 9.54192 4.72445 9.50433 4.64178 9.43568C4.55912 9.36702 4.50306 9.27161 4.48333 9.16598L3.99937 6.60662C3.96499 6.42466 3.87657 6.25729 3.74563 6.12635C3.61469 5.99541 3.44732 5.90698 3.26536 5.87261L0.705995 5.38864C0.600362 5.36891 0.504956 5.31286 0.436299 5.23019C0.367643 5.14752 0.33006 5.04345 0.33006 4.93599C0.33006 4.82853 0.367643 4.72445 0.436299 4.64178C0.504956 4.55912 0.600362 4.50306 0.705995 4.48333L3.26536 3.99937C3.44732 3.96499 3.61469 3.87657 3.74563 3.74563C3.87657 3.61469 3.96499 3.44732 3.99937 3.26536L4.48333 0.705995Z" stroke="white" stroke-width="0.66012" stroke-linecap="round" stroke-linejoin="round"/>
<path id="Vector_2" d="M1.25237 9.54113C1.761 9.54113 2.17333 9.1288 2.17333 8.62017C2.17333 8.11153 1.761 7.6992 1.25237 7.6992C0.743733 7.6992 0.331403 8.11153 0.331403 8.62017C0.331403 9.1288 0.743733 9.54113 1.25237 9.54113Z" stroke="white" stroke-width="0.66012" stroke-linecap="round" stroke-linejoin="round"/>
</g>
</svg>
