<svg preserveAspectRatio="none" width="100%" height="100%" overflow="visible" style="display: block;" viewBox="0 0 18.7134 18.7134" fill="none" xmlns="http://www.w3.org/2000/svg">
<g id="boxicons:heart">
<path id="Vector" d="M8.80308 16.1087C8.95903 16.2647 9.15396 16.3348 9.35669 16.3348C9.55941 16.3348 9.75435 16.2569 9.91029 16.1087L15.7582 10.2608C17.5906 8.42844 17.5906 5.54346 15.7582 3.70331C13.9649 1.92554 11.1968 1.87096 9.35669 3.54736C7.51654 1.87096 4.74852 1.91774 2.95515 3.70331C1.1228 5.54346 1.1228 8.42844 2.95515 10.2608L8.80308 16.1087ZM4.06236 4.80272C4.67834 4.19454 5.45807 3.89044 6.24559 3.89044C7.03311 3.89044 7.81283 4.19454 8.42102 4.80272L8.81088 5.19258C9.11497 5.49667 9.6062 5.49667 9.91029 5.19258L10.3002 4.80272C11.5165 3.58635 13.4346 3.58635 14.6588 4.80272C15.8752 6.02689 15.8752 7.93721 14.6588 9.15358L9.36448 14.4479L4.07016 9.15358C3.78112 8.86979 3.55154 8.53125 3.39481 8.15774C3.23809 7.78422 3.15737 7.38322 3.15737 6.97815C3.15737 6.57309 3.23809 6.17208 3.39481 5.79857C3.55154 5.42505 3.78112 5.08651 4.07016 4.80272H4.06236Z" fill="#FF0000"/>
<path id="Vector 60" d="M5.05719 11.7321L9.44675 15.0738L13.2299 11.9549L16.3488 8.44614L17.1285 6.7196L16.0311 4.49182L13.8363 3.37793H11.0928L9.99545 4.49182L9.44675 3.93488L6.15458 3.37793L3.95981 3.93488L2.31372 6.16266L2.86242 8.39044L5.05719 11.7321Z" fill="#FF0000"/>
</g>
</svg>
