<svg preserveAspectRatio="none" width="100%" height="100%" overflow="visible" style="display: block;" viewBox="0 0 11.8042 11.8042" fill="none" xmlns="http://www.w3.org/2000/svg">
<g id="SVG" clip-path="url(#clip0_0_25)">
<g id="Vector">
<path d="M5.74656 1.13182C5.79126 1.04152 5.8833 0.984375 5.98406 0.984375C6.08482 0.984375 6.17686 1.04152 6.22156 1.13182L7.37656 3.47132C7.53101 3.78389 7.82911 4.00069 8.17406 4.05132L10.7571 4.42932C10.8569 4.44379 10.9399 4.51369 10.9711 4.60963C11.0023 4.70556 10.9763 4.81089 10.9041 4.88132L9.03606 6.70032C8.78598 6.94402 8.67175 7.29513 8.73056 7.63932L9.17156 10.2093C9.18919 10.3091 9.14834 10.4103 9.06633 10.4698C8.98433 10.5294 8.87553 10.537 8.78606 10.4893L6.47706 9.27532C6.16822 9.11316 5.7994 9.11316 5.49056 9.27532L3.18206 10.4893C3.09263 10.5367 2.98405 10.5289 2.90221 10.4694C2.82037 10.4099 2.77958 10.309 2.79706 10.2093L3.23756 7.63982C3.29663 7.29546 3.18238 6.94408 2.93206 6.70032L1.06406 4.88182C0.991218 4.81147 0.964843 4.70575 0.996101 4.60942C1.02736 4.51309 1.11079 4.443 1.21106 4.42882L3.79356 4.05132C4.13892 4.00108 4.43748 3.78421 4.59206 3.47132L5.74656 1.13182" fill="#E0AE57"/>
<path d="M5.74656 1.13182C5.79126 1.04152 5.8833 0.984375 5.98406 0.984375C6.08482 0.984375 6.17686 1.04152 6.22156 1.13182L7.37656 3.47132C7.53101 3.78389 7.82911 4.00069 8.17406 4.05132L10.7571 4.42932C10.8569 4.44379 10.9399 4.51369 10.9711 4.60963C11.0023 4.70556 10.9763 4.81089 10.9041 4.88132L9.03606 6.70032C8.78598 6.94402 8.67175 7.29513 8.73056 7.63932L9.17156 10.2093C9.18919 10.3091 9.14834 10.4103 9.06633 10.4698C8.98433 10.5294 8.87553 10.537 8.78606 10.4893L6.47706 9.27532C6.16822 9.11316 5.7994 9.11316 5.49056 9.27532L3.18206 10.4893C3.09263 10.5367 2.98405 10.5289 2.90221 10.4694C2.82037 10.4099 2.77958 10.309 2.79706 10.2093L3.23756 7.63982C3.29663 7.29546 3.18238 6.94408 2.93206 6.70032L1.06406 4.88182C0.991218 4.81147 0.964843 4.70575 0.996101 4.60942C1.02736 4.51309 1.11079 4.443 1.21106 4.42882L3.79356 4.05132C4.13892 4.00108 4.43748 3.78421 4.59206 3.47132L5.74656 1.13182" stroke="#E0AE57" stroke-width="0.983687" stroke-linecap="round" stroke-linejoin="round"/>
</g>
</g>
<defs>
<clipPath id="clip0_0_25">
<rect width="11.8042" height="11.8042" fill="white"/>
</clipPath>
</defs>
</svg>
