<svg preserveAspectRatio="none" width="100%" height="100%" overflow="visible" style="display: block;" viewBox="0 0 12 12" fill="none" xmlns="http://www.w3.org/2000/svg">
<g id="lucide:crown">
<path id="Vector" d="M2.49924 10.5003H9.49924M5.78024 1.63333C5.80182 1.59413 5.83352 1.56145 5.87204 1.53868C5.91056 1.51592 5.95449 1.50391 5.99924 1.50391C6.04398 1.50391 6.08791 1.51592 6.12643 1.53868C6.16495 1.56145 6.19665 1.59413 6.21824 1.63333L7.69424 4.43533C7.72943 4.50021 7.77856 4.55649 7.83809 4.60014C7.89762 4.64378 7.96607 4.6737 8.03854 4.68776C8.111 4.70181 8.18568 4.69965 8.2572 4.68142C8.32873 4.66319 8.39534 4.62935 8.45224 4.58233L10.5907 2.75033C10.6318 2.71694 10.6824 2.69744 10.7352 2.69463C10.7881 2.69182 10.8404 2.70585 10.8848 2.7347C10.9291 2.76355 10.9632 2.80573 10.9821 2.85517C11.0009 2.90461 11.0036 2.95876 10.9897 3.00983L9.57273 8.13283C9.54381 8.23766 9.4815 8.33021 9.39524 8.39643C9.30898 8.46266 9.20348 8.49896 9.09474 8.49983H2.90424C2.7954 8.49907 2.68979 8.46282 2.60343 8.39658C2.51707 8.33035 2.45468 8.23774 2.42574 8.13283L1.00924 3.01033C0.995361 2.95926 0.998046 2.90511 1.01691 2.85567C1.03577 2.80623 1.06983 2.76405 1.11419 2.7352C1.15855 2.70635 1.21091 2.69232 1.26376 2.69513C1.3166 2.69794 1.36718 2.71744 1.40824 2.75083L3.54624 4.58283C3.60313 4.62985 3.66974 4.66369 3.74127 4.68192C3.81279 4.70015 3.88747 4.70231 3.95994 4.68826C4.0324 4.67421 4.10085 4.64428 4.16038 4.60064C4.21991 4.55699 4.26904 4.50071 4.30424 4.43583L5.78024 1.63333Z" stroke="white" stroke-linecap="round" stroke-linejoin="round"/>
</g>
</svg>
