<svg preserveAspectRatio="none" width="100%" height="100%" overflow="visible" style="display: block;" viewBox="0 0 11.8042 11.8042" fill="none" xmlns="http://www.w3.org/2000/svg">
<g id="SVG" clip-path="url(#clip0_0_36)">
<g id="Vector">
<path d="M5.74647 1.13087C5.79116 1.04057 5.8832 0.983426 5.98397 0.983426C6.08473 0.983426 6.17677 1.04057 6.22146 1.13087L7.37647 3.47037C7.53092 3.78294 7.82901 3.99974 8.17397 4.05037L10.757 4.42837C10.8568 4.44284 10.9398 4.51274 10.971 4.60868C11.0022 4.70461 10.9762 4.80995 10.904 4.88037L9.03597 6.69937C8.78589 6.94307 8.67166 7.29418 8.73047 7.63837L9.17147 10.2084C9.18909 10.3082 9.14824 10.4093 9.06624 10.4689C8.98423 10.5284 8.87543 10.536 8.78597 10.4884L6.47697 9.27437C6.16813 9.11221 5.7993 9.11221 5.49046 9.27437L3.18197 10.4884C3.09253 10.5357 2.98395 10.528 2.90211 10.4685C2.82028 10.409 2.77948 10.308 2.79697 10.2084L3.23747 7.63887C3.29654 7.29451 3.18228 6.94314 2.93197 6.69937L1.06397 4.88087C0.991121 4.81052 0.964746 4.7048 0.996004 4.60847C1.02726 4.51214 1.11069 4.44205 1.21097 4.42787L3.79347 4.05037C4.13882 4.00013 4.43739 3.78327 4.59197 3.47037L5.74647 1.13087" fill="#E0AE57"/>
<path d="M5.74647 1.13087C5.79116 1.04057 5.8832 0.983426 5.98397 0.983426C6.08473 0.983426 6.17677 1.04057 6.22146 1.13087L7.37647 3.47037C7.53092 3.78294 7.82901 3.99974 8.17397 4.05037L10.757 4.42837C10.8568 4.44284 10.9398 4.51274 10.971 4.60868C11.0022 4.70461 10.9762 4.80995 10.904 4.88037L9.03597 6.69937C8.78589 6.94307 8.67166 7.29418 8.73047 7.63837L9.17147 10.2084C9.18909 10.3082 9.14824 10.4093 9.06624 10.4689C8.98423 10.5284 8.87543 10.536 8.78597 10.4884L6.47697 9.27437C6.16813 9.11221 5.7993 9.11221 5.49046 9.27437L3.18197 10.4884C3.09253 10.5357 2.98395 10.528 2.90211 10.4685C2.82028 10.409 2.77948 10.308 2.79697 10.2084L3.23747 7.63887C3.29654 7.29451 3.18228 6.94314 2.93197 6.69937L1.06397 4.88087C0.991121 4.81052 0.964746 4.7048 0.996004 4.60847C1.02726 4.51214 1.11069 4.44205 1.21097 4.42787L3.79347 4.05037C4.13882 4.00013 4.43739 3.78327 4.59197 3.47037L5.74647 1.13087" stroke="#E0AE57" stroke-width="0.983687" stroke-linecap="round" stroke-linejoin="round"/>
</g>
</g>
<defs>
<clipPath id="clip0_0_36">
<rect width="11.8042" height="11.8042" fill="white"/>
</clipPath>
</defs>
</svg>
