<svg preserveAspectRatio="none" width="100%" height="100%" overflow="visible" style="display: block;" viewBox="0 0 10.8355 9.26629" fill="none" xmlns="http://www.w3.org/2000/svg">
<path id="Icon" d="M4.42216 3.05827C4.12338 3.05827 3.93006 2.74261 4.06586 2.47647L5.28929 0.0786768C5.31393 0.0303931 5.36355 0 5.41776 0C5.47197 0 5.52159 0.0303931 5.54623 0.0786767L6.76966 2.47647C6.90546 2.74261 6.71214 3.05827 6.41336 3.05827H4.42216ZM4.97613 8.86549C4.97613 9.23856 4.51055 9.40852 4.2702 9.1232L0.451401 4.58976C0.232272 4.32963 0.417197 3.93206 0.757327 3.93206H4.57613C4.79704 3.93206 4.97613 4.11115 4.97613 4.33206V8.86549ZM6.56532 9.1232C6.32497 9.40852 5.85939 9.23856 5.85939 8.86549V4.33206C5.85939 4.11115 6.03848 3.93206 6.25939 3.93206H10.0782C10.4183 3.93206 10.6032 4.32963 10.3841 4.58976L6.56532 9.1232ZM8.28518 3.05827C8.13374 3.05827 7.99529 2.97275 7.9275 2.83733L6.797 0.579058C6.66385 0.313086 6.85724 0 7.15468 0H9.29363C9.44451 0 9.58256 0.0849055 9.65062 0.219569L10.792 2.47784C10.9265 2.7439 10.7331 3.05827 10.435 3.05827H8.28518ZM0.400523 3.05827C0.102413 3.05827 -0.0909423 2.7439 0.0435284 2.47784L1.1849 0.219568C1.25296 0.0849053 1.39101 0 1.54189 0H3.68084C3.97828 0 4.17167 0.313087 4.03853 0.579059L2.90802 2.83733C2.84023 2.97275 2.70178 3.05827 2.55034 3.05827H0.400523Z" fill="white"/>
</svg>
